<?xml version="1.0" encoding="utf-8"?>
<svg width="6.8724365px" height="6.8569336px" viewBox="0 0 6.8724365 6.8569336" version="1.1" xmlns:xlink="http://www.w3.org/1999/xlink" xmlns="http://www.w3.org/2000/svg">
  <defs>
    <path d="M0 0L6.87243 0L6.87243 6.85713L0 6.85713L0 0Z" id="path_1" />
    <clipPath id="mask_1">
      <use xlink:href="#path_1" />
    </clipPath>
  </defs>
  <g id="arrow-up-right-from-square-solid-2">
    <path d="M0 0L6.87243 0L6.87243 6.85713L0 6.85713L0 0Z" id="Background" fill="#FFFFFF" fill-opacity="0" fill-rule="evenodd" stroke="none" />
    <g clip-path="url(#mask_1)">
      <path d="M3.92705 0.857282C3.92705 0.62063 4.14642 0.428711 4.41794 0.428711L6.36769 0.428711C6.36769 0.428711 6.36769 0.428711 6.36769 0.428711C6.44745 0.428711 6.51188 0.440229 6.56864 0.461256C6.61313 0.482014 6.68063 0.512684 6.72818 0.553264C6.72818 0.553934 6.72818 0.554604 6.72971 0.555139C6.82482 0.638443 6.85857 0.747193 6.87238 0.855943C6.87238 0.856478 6.87238 0.85688 6.87238 0.857282L6.87238 2.57157C6.87238 2.80862 6.65301 3.00014 6.38149 3.00014C6.10997 3.00014 5.8906 2.80862 5.8906 2.57157L5.8906 1.89255L3.29197 4.15996C3.10021 4.32737 2.79034 4.32737 2.59859 4.15996C2.40683 3.99255 2.40683 3.72201 2.59859 3.5546L5.19569 1.28585L4.41794 1.28585C4.14642 1.28585 3.92705 1.09393 3.92705 0.857282L3.92705 0.857282L3.92705 0.857282ZM0 1.71456C0 1.24113 0.439498 0.857422 0.981776 0.857422L2.45444 0.857422C2.72596 0.857422 2.94533 1.04934 2.94533 1.28599C2.94533 1.52305 2.72596 1.71456 2.45444 1.71456L0.981776 1.71456L0.981776 5.5717L5.39977 5.5717L5.39977 4.28599C5.39977 4.04894 5.61913 3.85742 5.89065 3.85742C6.16218 3.85742 6.38154 4.04894 6.38154 4.28599L6.38154 5.5717C6.38154 6.04447 5.94128 6.42884 5.39977 6.42884L0.981776 6.42884C0.439498 6.42884 0 6.04447 0 5.5717L0 1.71456L0 1.71456Z" id="Shape" fill="#FFFFFF" fill-rule="evenodd" stroke="none" />
    </g>
  </g>
</svg>