<?xml version="1.0" encoding="utf-8"?>
<svg width="159px" height="181.71423px" viewBox="0 0 159 181.71423" version="1.1" xmlns:xlink="http://www.w3.org/1999/xlink" xmlns="http://www.w3.org/2000/svg">
  <defs>
    <path d="M0 0L159 0L159 181.714L0 181.714L0 0Z" id="path_1" />
    <clipPath id="mask_1">
      <use xlink:href="#path_1" />
    </clipPath>
  </defs>
  <g id="flying-disc-solid">
    <path d="M0 0L159 0L159 181.714L0 181.714L0 0Z" id="Background" fill="#FFFFFF" fill-opacity="0" fill-rule="evenodd" stroke="none" />
    <g clip-path="url(#mask_1)">
      <path d="M29.603 129.329C63.2805 129.329 118.437 73.9279 118.437 40.7083C118.437 28.6448 110.665 24.3185 102.012 24.3185C68.3344 24.3185 13.1777 79.72 13.1777 112.94C13.1777 125 20.9432 129.329 29.603 129.329L29.603 129.329ZM158.68 45.0382C158.68 23.5058 144.803 11.3572 125.248 11.3572C120.279 11.3572 114.881 12.2743 109.298 13.7457C111.988 14.3402 129.886 18.6754 129.886 40.5841C129.886 80.1211 69.6226 140.704 29.5887 140.704C29.5455 140.704 29.4282 140.707 29.2447 140.707C26.3249 140.707 6.65111 140.11 2.41702 119.92C0.813537 125.861 -0.0126953 131.522 -0.0126953 136.774C-0.000201614 158.077 13.9974 170.357 33.6985 170.357C83.3328 170.357 158.68 96.1099 158.68 45.0382L158.68 45.0382Z" id="Shape" fill="#FFFFFF" fill-rule="evenodd" stroke="none" />
    </g>
  </g>
</svg>