<?xml version="1.0" encoding="utf-8"?>
<svg width="98px" height="29px" viewBox="0 0 98 29" version="1.1" xmlns:xlink="http://www.w3.org/1999/xlink" xmlns="http://www.w3.org/2000/svg">
  <g id="InPlease" fill="#FFFFFF">
    <path d="M41.2969 22.9551L38.7539 22.9551L38.7539 5.23633L41.2969 5.23633L41.2969 22.9551ZM4.74609 22.9551L2.12109 22.9551L2.12109 6.04492L4.74609 6.04492L4.74609 22.9551ZM23.3555 22.9551L25.9805 22.9551L25.9805 17.1777L29.9414 17.1777C33.2578 17.1777 35.5547 14.916 35.5547 11.6113L35.5547 11.5879C35.5547 8.27148 33.2578 6.04492 29.9414 6.04492L23.3555 6.04492L23.3555 22.9551ZM29.2852 8.25977C31.5586 8.25977 32.8828 9.49023 32.8828 11.5996L32.8828 11.623C32.8828 13.7441 31.5586 14.9746 29.2852 14.9746L25.9805 14.9746L25.9805 8.25977L29.2852 8.25977ZM11.2266 22.9551L8.68359 22.9551L8.68359 10.2285L11.2266 10.2285L11.2266 12.1621L11.4141 12.1621C12.0352 10.8027 13.2539 9.98242 15.1055 9.98242C17.9531 9.98242 19.5234 11.6816 19.5234 14.7168L19.5234 22.9551L16.9922 22.9551L16.9922 15.3145C16.9922 13.2051 16.1133 12.1621 14.25 12.1621C12.3867 12.1621 11.2266 13.4395 11.2266 15.4902L11.2266 22.9551ZM50.4141 23.2012C53.6719 23.2012 55.4297 21.3262 55.8516 19.6504L55.875 19.5449L53.4258 19.5566L53.3789 19.6504C53.0742 20.3066 52.1016 21.1152 50.4727 21.1152C48.375 21.1152 47.0391 19.6973 46.9922 17.2598L56.0156 17.2598L56.0156 16.3691C56.0156 12.5488 53.8359 9.98242 50.2852 9.98242C46.7344 9.98242 44.4375 12.6426 44.4375 16.6152L44.4375 16.627C44.4375 20.6582 46.6875 23.2012 50.4141 23.2012ZM66.3047 21.1504C65.5547 22.4395 64.2188 23.166 62.5313 23.166C60.1055 23.166 58.3125 21.6895 58.3125 19.3809L58.3125 19.3574C58.3125 17.084 60.0234 15.7598 63.0586 15.5723L66.5039 15.373L66.5039 14.248C66.5039 12.8535 65.625 12.0801 63.9023 12.0801C62.4961 12.0801 61.5703 12.5957 61.2656 13.498L61.2539 13.5449L58.8047 13.5449L58.8164 13.4629C59.1211 11.377 61.125 9.98242 64.0195 9.98242C67.2188 9.98242 69.0234 11.5762 69.0234 14.248L69.0234 22.9551L66.5039 22.9551L66.5039 21.1504L66.3047 21.1504ZM77.2383 23.2012C80.2617 23.2012 82.5117 21.5957 82.5117 19.2402L82.5117 19.2168C82.5117 17.377 81.3398 16.334 78.8906 15.7598L76.875 15.3027C75.4453 14.9629 74.8594 14.4707 74.8594 13.6738L74.8594 13.6504C74.8594 12.6309 75.8672 11.9395 77.2617 11.9395C78.6914 11.9395 79.5938 12.6074 79.8398 13.498L79.8398 13.5215L82.2656 13.5215L82.2656 13.5098C82.043 11.4355 80.1797 9.98242 77.2734 9.98242C74.3906 9.98242 72.3281 11.5762 72.3281 13.791L72.3281 13.8027C72.3281 15.666 73.4414 16.7559 75.8438 17.3066L77.8711 17.7754C79.3477 18.1152 79.9453 18.6543 79.9453 19.4512L79.9453 19.4746C79.9453 20.5176 78.8555 21.2324 77.2852 21.2324C75.7734 21.2324 74.8477 20.5879 74.5313 19.627L74.5195 19.6152L71.9766 19.6152L71.9766 19.627C72.2227 21.7598 74.168 23.2012 77.2383 23.2012ZM96.3281 19.6504C95.9063 21.3262 94.1484 23.2012 90.8906 23.2012C87.1641 23.2012 84.9141 20.6582 84.9141 16.627L84.9141 16.6152C84.9141 12.6426 87.2109 9.98242 90.7617 9.98242C94.3125 9.98242 96.4922 12.5488 96.4922 16.3691L96.4922 17.2598L87.4688 17.2598C87.5156 19.6973 88.8516 21.1152 90.9492 21.1152C92.5781 21.1152 93.5508 20.3066 93.8555 19.6504L93.9023 19.5566L96.3516 19.5449L96.3281 19.6504ZM50.2969 12.0684C52.0195 12.0684 53.2969 13.1699 53.4961 15.4434L47.0273 15.4434C47.25 13.252 48.5625 12.0684 50.2969 12.0684ZM93.9727 15.4434C93.7734 13.1699 92.4961 12.0684 90.7734 12.0684C89.0391 12.0684 87.7266 13.252 87.5039 15.4434L93.9727 15.4434ZM60.8438 19.252L60.8438 19.2754C60.8438 20.4473 61.8398 21.1387 63.2109 21.1387C65.1094 21.1387 66.5039 19.8965 66.5039 18.2559L66.5039 17.166L63.3984 17.3652C61.6406 17.4707 60.8438 18.1035 60.8438 19.252Z" />
  </g>
</svg>